<svg xmlns="http://www.w3.org/2000/svg" viewBox="0 0 64 64" role="img" aria-label="Kite Studio">
  <defs>
    <clipPath id="kite-mobile-icon-clip">
      <rect x="11" y="11" width="42" height="42" rx="9" ry="9" transform="rotate(45 32 32)"/>
    </clipPath>
  </defs>
  <rect x="11" y="11" width="42" height="42" rx="9" ry="9" transform="rotate(45 32 32)" fill="#FF4500"/>
  <g clip-path="url(#kite-mobile-icon-clip)">
    <line x1="20" y1="8" x2="20" y2="56" stroke="#FFFFFF" stroke-width="1.6" stroke-linecap="round" opacity="0.92"/>
    <line x1="26" y1="8" x2="26" y2="56" stroke="#FFFFFF" stroke-width="1.6" stroke-linecap="round" opacity="0.92"/>
    <line x1="32" y1="8" x2="32" y2="56" stroke="#FFFFFF" stroke-width="1.6" stroke-linecap="round" opacity="0.92"/>
    <line x1="38" y1="8" x2="38" y2="56" stroke="#FFFFFF" stroke-width="1.6" stroke-linecap="round" opacity="0.92"/>
    <line x1="44" y1="8" x2="44" y2="56" stroke="#FFFFFF" stroke-width="1.6" stroke-linecap="round" opacity="0.92"/>
  </g>
  <g>
    <rect x="15.5" y="23.4" width="9" height="5.2" rx="2.6" ry="2.6" fill="#1A9E8F" stroke="rgba(255,255,255,0.85)" stroke-width="0.6"/>
    <line x1="18.5" y1="23.95" x2="18.5" y2="28.05" stroke="#000000" stroke-width="0.5"/>
    <line x1="20" y1="23.95" x2="20" y2="28.05" stroke="#000000" stroke-width="0.5"/>
    <line x1="21.5" y1="23.95" x2="21.5" y2="28.05" stroke="#000000" stroke-width="0.5"/>
  </g>
  <g>
    <rect x="21.5" y="31.4" width="9" height="5.2" rx="2.6" ry="2.6" fill="#1A9E8F" stroke="rgba(255,255,255,0.85)" stroke-width="0.6"/>
    <line x1="24.5" y1="31.95" x2="24.5" y2="36.05" stroke="#000000" stroke-width="0.5"/>
    <line x1="26" y1="31.95" x2="26" y2="36.05" stroke="#000000" stroke-width="0.5"/>
    <line x1="27.5" y1="31.95" x2="27.5" y2="36.05" stroke="#000000" stroke-width="0.5"/>
  </g>
  <g>
    <rect x="27.5" y="19.4" width="9" height="5.2" rx="2.6" ry="2.6" fill="#1A9E8F" stroke="rgba(255,255,255,0.85)" stroke-width="0.6"/>
    <line x1="30.5" y1="19.95" x2="30.5" y2="24.05" stroke="#000000" stroke-width="0.5"/>
    <line x1="32" y1="19.95" x2="32" y2="24.05" stroke="#000000" stroke-width="0.5"/>
    <line x1="33.5" y1="19.95" x2="33.5" y2="24.05" stroke="#000000" stroke-width="0.5"/>
  </g>
  <g>
    <rect x="33.5" y="35.4" width="9" height="5.2" rx="2.6" ry="2.6" fill="#1A9E8F" stroke="rgba(255,255,255,0.85)" stroke-width="0.6"/>
    <line x1="36.5" y1="35.95" x2="36.5" y2="40.05" stroke="#000000" stroke-width="0.5"/>
    <line x1="38" y1="35.95" x2="38" y2="40.05" stroke="#000000" stroke-width="0.5"/>
    <line x1="39.5" y1="35.95" x2="39.5" y2="40.05" stroke="#000000" stroke-width="0.5"/>
  </g>
  <g>
    <rect x="39.5" y="27.4" width="9" height="5.2" rx="2.6" ry="2.6" fill="#1A9E8F" stroke="rgba(255,255,255,0.85)" stroke-width="0.6"/>
    <line x1="42.5" y1="27.95" x2="42.5" y2="32.05" stroke="#000000" stroke-width="0.5"/>
    <line x1="44" y1="27.95" x2="44" y2="32.05" stroke="#000000" stroke-width="0.5"/>
    <line x1="45.5" y1="27.95" x2="45.5" y2="32.05" stroke="#000000" stroke-width="0.5"/>
  </g>
</svg>
